<?xml version="1.0" standalone="no"?>
<!DOCTYPE svg PUBLIC "-//W3C//DTD SVG 20010904//EN"
 "http://www.w3.org/TR/2001/REC-SVG-20010904/DTD/svg10.dtd">
<svg version="1.0" xmlns="http://www.w3.org/2000/svg"
 width="384" height="409pt" viewBox="0 0 384 520">
<g transform="translate(0.000000,512.000000) scale(0.100000,-0.100000)"
fill="#595959" stroke="none">
<path d="M330 3610 c-145 -36 -246 -130 -294 -274 -21 -62 -21 -63 -19 -1645
l3 -1583 38 -76 c43 -88 107 -152 195 -195 l57 -28 1615 0 1615 0 57 28 c88
43 152 107 195 195 l38 76 3 1583 c2 1582 2 1583 -19 1645 -49 148 -157 245
-307 277 -80 17 -3108 14 -3177 -3z m1745 -752 c79 -38 140 -97 177 -172 25
-50 28 -68 28 -152 0 -88 -3 -101 -33 -162 -132 -269 -512 -269 -644 0 -30 61
-33 74 -33 162 0 83 3 102 27 150 65 132 195 212 338 207 60 -2 88 -9 140 -33z
m96 -905 l29 -30 3 -445 3 -444 50 0 c60 0 111 -20 133 -51 13 -19 16 -49 16
-154 0 -71 -3 -140 -6 -152 -4 -13 -21 -32 -39 -43 -31 -19 -49 -20 -437 -20
-403 0 -405 0 -434 22 -16 12 -32 27 -36 33 -4 5 -8 73 -8 150 0 114 3 145 16
164 23 32 73 51 134 51 l50 0 0 270 0 270 -71 0 c-65 0 -73 2 -100 29 l-29 29
0 147 0 147 29 29 29 29 319 0 319 0 30 -31z"/>
</g>
</svg>
