 <svg id="logo-dpat" width="400" height="500" data-name="logo-dpat" xmlns="http://www.w3.org/2000/svg" viewBox="0 -9 96 96">
    <defs>
        <style>

            .cls-1{
                fill:#6a6b675e;
                opacity:0.5;
                stroke-width:3; 
            }

            .cls-2{
                fill:#b2b2b2;
            }

            .cls-3{
                fill:#5a4320;
                stroke:#5a4320;
                stroke-width:2; 
            }

            .cls-4{
                fill:#f9b233;
                stroke:#f9b233;
                stroke-width:8; 
            }

            .cls-5{
                fill:#7cb359;
                stroke:#7cb359;
                stroke-width:8; 
            }

            .cls-6{
                fill:#257a33;
                stroke:#257a33;
                stroke-width:8; 
            }

            .cls-7{
                fill:#ffed00;
                stroke:#ffed00;
                stroke-width:8; 
            }

        </style>
    </defs>
    <circle class="cls-1" cx="48" cy="48" r="48"/>

    <path class="cls-2" d="M23.32,78.3l11-2.11,11.82.38,6.22-.25,7.81,1.21,7.07-1,9,1.23L69.49,80s-7.65,2.57-8,2.57h-13L42,81.39l-12.07-1.2Z"/>
    <polygon class="cls-3" points="55.57 57.98 60.77 47.63 57.63 51.23 58.84 46.31 54.95 55.36 51.48 61.85 49.83 62.7 49.27 62.16 49.27 62.16 43.55 56.68 34.89 48.99 37.42 53.08 32.86 50.76 40.67 56.79 46.95 62.7 49.25 65.19 49.31 65.05 49.35 67.96 47.67 76.57 46.48 79.4 52.12 79.4 51.4 69.97 51.43 66.9 55.57 57.98">
        <animate attributeName="stroke-opacity"
             begin="0s" dur="1.8s"
             values="0;0;0.8;0;0"
             calcMode="linear"
             repeatCount="indefinite" />
    </polygon>
    
    <polygon class="cls-4" points="45.83 30.9 28.43 30.9 19.73 45.97 28.43 61.04 45.83 61.04 54.53 45.97 45.83 30.9"> 
        <animate attributeName="stroke-opacity"
             begin="0s" dur="1.8s"
             values="0;0;0;0.8;0"
             calcMode="linear"
             repeatCount="indefinite" />
    </polygon>

    <polygon class="cls-5" points="68.37 27.51 54.52 27.51 47.6 39.5 54.52 51.49 68.37 51.49 75.29 39.5 68.37 27.51"> 
        <animate attributeName="stroke-opacity"
             begin="0s" dur="1.8s"
             values="0;0.8;0;0;0"
             calcMode="linear"
             repeatCount="indefinite" />
    </polygon>
    
    <polygon class="cls-6" points="57.52 13.47 43.67 13.47 36.75 25.46 43.67 37.45 57.52 37.45 64.44 25.46 57.52 13.47">
        <animate attributeName="stroke-opacity"
             begin="0s" dur="1.8s"
             values="0.8;0;0;0;0"
             calcMode="linear"
             repeatCount="indefinite" />
    </polygon>
    
    <polygon class="cls-7" points="37.55 23.29 25.67 23.29 19.73 33.58 25.67 43.87 37.55 43.87 43.49 33.58 37.55 23.29">
        <animate attributeName="stroke-opacity"
             begin="0s" dur="1.8s"
             values="0;0;0;0;0.8"
             calcMode="linear"
             repeatCount="indefinite" />
    </polygon>
</svg>