<?xml version="1.0" encoding="iso-8859-1"?>
<!-- Generator: Adobe Illustrator 18.1.1, SVG Export Plug-In . SVG Version: 6.00 Build 0)  -->
<svg version="1.1" id="Capa_1" xmlns="http://www.w3.org/2000/svg" xmlns:xlink="http://www.w3.org/1999/xlink" x="0px" y="0px"
	 viewBox="0 0 32 32" style="enable-background:new 0 0 32 32;" xml:space="preserve">
<g>
	<g id="lock_x5F_stroke">
		<g>
			<path style="fill:#fcd635;" d="M18.004,0c-5.51,0-9.998,4.484-9.998,10v2H4v14c0,3.305,2.695,6,5.998,6H22c3.312,0,6-2.695,6-6
				V10C28,4.484,23.516,0,18.004,0z M12.006,10c0-3.312,2.693-6,5.998-6C21.312,4,24,6.688,24,10v2H12.006V10z M22,28H9.998
				c-1.102,0-2-0.898-2-2V16H24v10C24,27.102,23.109,28,22,28z"/>
			<path style="fill:#fcd635;" d="M18.004,22c0,1.102-0.898,2-2,2c-1.109,0-2-0.898-2-2c0-1.109,0.891-2,2-2
				C17.105,20,18.004,20.891,18.004,22z"/>
		</g>
	</g>
</g>
</svg>
