<?xml version="1.0" standalone="no"?>
<!DOCTYPE svg PUBLIC "-//W3C//DTD SVG 20010904//EN"
        "http://www.w3.org/TR/2001/REC-SVG-20010904/DTD/svg10.dtd">
<svg version="1.0" xmlns="http://www.w3.org/2000/svg"
     width="384pt" height="510" viewBox="0 0 384 512"
     preserveAspectRatio="xMidYMid meet">
    <g transform="translate(0.000000,510.000000) scale(0.100000,-0.100000)"
       fill="#ff7b12" stroke="none">
        <path d="M535 4916 c-142 -45 -243 -150 -279 -291 -14 -53 -16 -284 -16 -2065
0 -1781 2 -2012 16 -2065 31 -120 110 -215 222 -268 l67 -32 1245 0 1245 0 67
32 c127 60 217 182 239 325 6 39 8 620 7 1533 l-3 1470 -535 5 c-474 4 -540 7
-578 22 -90 36 -174 112 -217 198 -43 83 -45 113 -45 643 l0 507 -697 -1
c-535 0 -707 -3 -738 -13z m2663 -3693 l-3 -668 -30 -53 c-32 -59 -66 -91
-129 -125 l-41 -22 -1200 0 -1200 0 -45 23 c-58 30 -95 66 -128 122 l-27 45
-3 673 -3 672 1406 0 1406 0 -3 -667z"/>
        <path class="shp" fill="black"  stroke="black" stroke-width="80" d="M800 1537 c-112 -42 -159 -134 -129 -256 15 -63 61 -117 176 -207
124 -96 166 -173 133 -237 -17 -31 -28 -37 -75 -37 -58 0 -90 34 -106 112 -14
66 -4 62 -102 37 l-38 -10 7 -47 c8 -58 50 -137 84 -161 41 -29 101 -44 167
-44 145 1 227 105 195 247 -19 85 -59 137 -180 232 -110 87 -141 126 -141 178
0 65 52 107 112 90 40 -12 68 -50 75 -103 5 -33 9 -41 22 -36 9 4 37 11 64 17
54 13 58 25 32 99 -19 52 -47 84 -98 110 -49 26 -151 34 -198 16z"/>
        <path class="shp" fill="black" stroke="black" stroke-width="80"  d="M1600 1110 l0 -421 63 3 62 3 3 193 2 192 100 0 100 0 0 -195 0 -195
60 0 60 0 0 420 0 420 -60 0 -60 0 0 -180 0 -180 -100 0 -100 0 0 180 0 180
-65 0 -65 0 0 -420z"/>
        <path class="shp" fill="black" stroke="black" stroke-width="80"  d="M2510 1105 l6 -425 60 0 60 0 0 200 0 200 73 0 c164 1 243 91 223
257 -7 59 -32 118 -63 145 -42 38 -88 48 -223 48 l-130 0 0 -425z m212 325
c20 -6 48 -24 62 -41 34 -40 37 -132 7 -171 -21 -26 -79 -48 -130 -48 l-31 0
0 135 0 135 28 0 c15 0 44 -5 64 -10z"/>
        <path  d="M2152 4348 c3 -431 3 -433 27 -481 12 -26 38 -59 57 -73 68 -52 77
-53 539 -54 l430 0 -520 520 c-286 286 -524 520 -528 520 -4 0 -7 -195 -5
-432z"/>
    </g>
    <style>
        .shp{
            margin: 20px;
        }
    </style>
</svg>
