<?xml version="1.0" encoding="utf-8"?>
<!-- Generator: Adobe Illustrator 24.1.1, SVG Export Plug-In . SVG Version: 6.00 Build 0)  -->
<svg version="1.1" id="Layer_1" xmlns="http://www.w3.org/2000/svg" xmlns:xlink="http://www.w3.org/1999/xlink" x="0px" y="0px"
	 viewBox="0 0 512 512" style="enable-background:new 0 0 512 512;" xml:space="preserve">
<style type="text/css">
	.st0{fill-rule:evenodd;clip-rule:evenodd;}
</style>
<g>
	<path fill="#fcd635" class="st0" d="M185.8,112.9c-8.3-8.3-21.8-8.4-30.2,0l0,0l-128,128c-8.4,8.3-8.4,21.8-0.1,30.2l0.1,0.1l128,128
		c8.3,8.3,21.9,8.3,30.2,0c8.3-8.4,8.3-21.9,0-30.2L72.8,256l112.9-112.9C194.1,134.8,194.2,121.3,185.8,112.9L185.8,112.9z"/>
	<path fill="#fcd635" class="st0" d="M362.7,256c0-11.8-9.6-21.3-21.3-21.3H64c-11.8,0-21.3,9.6-21.3,21.3s9.6,21.3,21.3,21.3h277.3
		C353.1,277.3,362.7,267.8,362.7,256z M469.3,512c-11.8,0-21.3-9.6-21.3-21.3V21.3C448,9.6,457.6,0,469.3,0s21.3,9.6,21.3,21.3
		v469.3C490.7,502.4,481.1,512,469.3,512z"/>
</g>
</svg>
